<?xml version="1.0" encoding="UTF-8"?>
<!DOCTYPE svg PUBLIC "-//W3C//DTD SVG 1.1//EN" "http://www.w3.org/Graphics/SVG/1.1/DTD/svg11.dtd">
<svg xmlns="http://www.w3.org/2000/svg" version="1.1" width="623px" height="170px" style="shape-rendering:geometricPrecision; text-rendering:geometricPrecision; image-rendering:optimizeQuality; fill-rule:evenodd; clip-rule:evenodd" xmlns:xlink="http://www.w3.org/1999/xlink">
<g><path style="opacity:1" fill="#fdfefe" d="M -0.5,-0.5 C 207.167,-0.5 414.833,-0.5 622.5,-0.5C 622.5,56.1667 622.5,112.833 622.5,169.5C 414.833,169.5 207.167,169.5 -0.5,169.5C -0.5,112.833 -0.5,56.1667 -0.5,-0.5 Z"/></g>
<g><path style="opacity:1" fill="#006766" d="M 82.5,11.5 C 103.557,9.01644 121.057,15.6831 135,31.5C 140.376,38.9615 143.376,47.2949 144,56.5C 144.667,76.8333 144.667,97.1667 144,117.5C 134.665,125.992 135.831,132.658 147.5,137.5C 159.463,132.338 160.463,125.671 150.5,117.5C 149.167,101.167 149.167,84.8333 150.5,68.5C 157.57,71.2732 163.403,75.6065 168,81.5C 169.75,84.2464 170.75,87.2464 171,90.5C 171.667,103.833 171.667,117.167 171,130.5C 165.753,146.958 154.753,152.958 138,148.5C 130.947,145.779 126.281,140.779 124,133.5C 122.699,104.548 122.032,75.5482 122,46.5C 112.929,39.7986 103.263,34.1319 93,29.5C 75.7359,38.634 58.7359,48.3007 42,58.5C 42.1686,42.3276 49.002,29.8276 62.5,21C 68.9464,17.1414 75.613,13.9748 82.5,11.5 Z"/></g>
<g><path style="opacity:1" fill="#aeaeae" d="M 255.5,18.5 C 247.082,18.1981 238.748,18.5314 230.5,19.5C 234.276,18.1752 238.443,17.5085 243,17.5C 247.347,17.501 251.514,17.8343 255.5,18.5 Z"/></g>
<g><path style="opacity:1" fill="#333333" d="M 255.5,18.5 C 267.967,51.8994 280.634,85.2328 293.5,118.5C 287.355,119.49 281.022,119.823 274.5,119.5C 272.771,118.883 271.271,117.883 270,116.5C 267.907,109.819 265.407,103.319 262.5,97C 249.5,96.3333 236.5,96.3333 223.5,97C 220.809,103.405 218.309,109.905 216,116.5C 214.512,118.16 212.679,119.16 210.5,119.5C 204.31,119.823 198.31,119.49 192.5,118.5C 205.441,85.6151 218.108,52.6151 230.5,19.5C 238.748,18.5314 247.082,18.1981 255.5,18.5 Z"/></g>
<g><path style="opacity:1" fill="#006766" d="M 61.5,84.5 C 62.4961,99.324 62.8294,114.324 62.5,129.5C 59.0179,144.131 49.6846,150.964 34.5,150C 24.2197,148.387 17.7197,142.553 15,132.5C 14.3333,117.833 14.3333,103.167 15,88.5C 16.946,80.8894 21.446,75.3894 28.5,72C 49.7726,59.4466 71.2726,47.2799 93,35.5C 101.148,39.9075 109.148,44.5742 117,49.5C 117.667,57.8333 117.667,66.1667 117,74.5C 109.148,69.5742 101.148,64.9075 93,60.5C 73.6889,70.988 54.6889,81.988 36,93.5C 35.6667,101.5 35.3333,109.5 35,117.5C 27.594,122.433 26.7607,128.266 32.5,135C 40.9096,138.605 46.2429,135.938 48.5,127C 47.8727,123.205 45.8727,120.371 42.5,118.5C 41.1667,110.833 41.1667,103.167 42.5,95.5C 48.6972,91.5691 55.0305,87.9024 61.5,84.5 Z"/></g>
<g><path style="opacity:1" fill="#fafafa" d="M 242.5,39.5 C 243.79,40.0577 244.623,41.0577 245,42.5C 249.068,54.8704 253.235,67.2038 257.5,79.5C 257.291,80.086 256.957,80.586 256.5,81C 247.5,81.6667 238.5,81.6667 229.5,81C 233.059,67.1448 237.392,53.3114 242.5,39.5 Z"/></g>
<g><path style="opacity:1" fill="#323332" d="M 325.5,67.5 C 324.503,84.6586 324.17,101.992 324.5,119.5C 317.833,119.5 311.167,119.5 304.5,119.5C 304.5,95.5 304.5,71.5 304.5,47.5C 309.93,47.161 315.264,47.661 320.5,49C 321.289,51.3651 322.456,53.5318 324,55.5C 337.407,43.59 350.74,43.59 364,55.5C 367.062,60.7449 368.728,66.4116 369,72.5C 369.5,88.1631 369.667,103.83 369.5,119.5C 362.5,119.5 355.5,119.5 348.5,119.5C 348.667,102.83 348.5,86.1633 348,69.5C 344.994,62.2737 339.827,60.1071 332.5,63C 329.761,64.0259 327.428,65.5259 325.5,67.5 Z"/></g>
<g><path style="opacity:1" fill="#333333" d="M 411.5,46.5 C 425.731,44.8644 436.231,50.1978 443,62.5C 443.882,65.7895 444.548,69.1228 445,72.5C 445.5,88.1631 445.667,103.83 445.5,119.5C 440.821,119.666 436.155,119.499 431.5,119C 429.628,116.707 428.128,114.207 427,111.5C 415.702,121.212 403.202,123.045 389.5,117C 381.148,108.191 380.481,98.858 387.5,89C 392.275,85.2789 397.609,82.6123 403.5,81C 410.698,79.7345 417.865,78.5679 425,77.5C 426.393,68.5756 422.726,63.2423 414,61.5C 407.863,63.1011 401.863,65.1011 396,67.5C 390.962,66.2946 387.795,63.1279 386.5,58C 393.631,51.4327 401.964,47.5994 411.5,46.5 Z"/></g>
<g><path style="opacity:1" fill="#323332" d="M 483.5,67.5 C 482.503,84.6586 482.17,101.992 482.5,119.5C 475.833,119.5 469.167,119.5 462.5,119.5C 462.5,95.5 462.5,71.5 462.5,47.5C 467.93,47.161 473.264,47.661 478.5,49C 479.289,51.3651 480.456,53.5318 482,55.5C 494.801,44.0799 507.801,43.7466 521,54.5C 525.001,60.1619 527.001,66.4953 527,73.5C 527.5,88.8297 527.667,104.163 527.5,119.5C 520.5,119.5 513.5,119.5 506.5,119.5C 506.667,102.83 506.5,86.1633 506,69.5C 502.994,62.2737 497.827,60.1071 490.5,63C 487.761,64.0259 485.428,65.5259 483.5,67.5 Z"/></g>
<g><path style="opacity:1" fill="#b5b5b5" d="M 304.5,47.5 C 304.5,71.5 304.5,95.5 304.5,119.5C 311.167,119.5 317.833,119.5 324.5,119.5C 324.17,101.992 324.503,84.6586 325.5,67.5C 325.5,85.1667 325.5,102.833 325.5,120.5C 318.167,120.5 310.833,120.5 303.5,120.5C 303.169,95.9943 303.502,71.6609 304.5,47.5 Z"/></g>
<g><path style="opacity:1" fill="#b6b6b6" d="M 462.5,47.5 C 462.5,71.5 462.5,95.5 462.5,119.5C 469.167,119.5 475.833,119.5 482.5,119.5C 482.17,101.992 482.503,84.6586 483.5,67.5C 483.5,85.1667 483.5,102.833 483.5,120.5C 476.167,120.5 468.833,120.5 461.5,120.5C 461.169,95.9943 461.502,71.6609 462.5,47.5 Z"/></g>
<g><path style="opacity:1" fill="#323332" d="M 533.5,47.5 C 539.509,47.3338 545.509,47.5005 551.5,48C 553.101,48.2734 554.601,48.7734 556,49.5C 561.346,63.5446 566.679,77.5446 572,91.5C 577.384,78.0201 582.384,64.3535 587,50.5C 588.171,49.1068 589.671,48.2735 591.5,48C 597.196,47.1701 602.863,47.3368 608.5,48.5C 596.058,77.0511 583.891,105.718 572,134.5C 569.406,142.017 564.073,145.017 556,143.5C 553.5,143.167 551,142.833 548.5,142.5C 552.977,133.047 557.31,123.547 561.5,114C 552.064,91.8517 542.73,69.685 533.5,47.5 Z"/></g>
<g><path style="opacity:1" fill="#abcdcd" d="M 61.5,84.5 C 61.56,83.9569 61.8933,83.6236 62.5,83.5C 63.8264,98.9948 63.8264,114.328 62.5,129.5C 62.8294,114.324 62.4961,99.324 61.5,84.5 Z"/></g>
<g><path style="opacity:1" fill="#f8f8f8" d="M 413.5,90.5 C 417.182,90.3347 420.848,90.5014 424.5,91C 427.252,97.898 425.252,102.898 418.5,106C 412.956,108.42 407.789,107.92 403,104.5C 401.102,100.494 401.936,96.994 405.5,94C 408.309,92.9066 410.976,91.7399 413.5,90.5 Z"/></g>
<g><path style="opacity:1" fill="#afafaf" d="M 293.5,118.5 C 294.043,118.56 294.376,118.893 294.5,119.5C 287.678,120.818 281.011,120.818 274.5,119.5C 281.022,119.823 287.355,119.49 293.5,118.5 Z"/></g>
<g><path style="opacity:1" fill="#afafaf" d="M 192.5,118.5 C 198.31,119.49 204.31,119.823 210.5,119.5C 204.322,120.817 197.988,120.817 191.5,119.5C 191.624,118.893 191.957,118.56 192.5,118.5 Z"/></g>
</svg>
